<svg version="1.0" xmlns="http://www.w3.org/2000/svg"
 width="640.000000pt" height="640.000000pt" viewBox="0 0 640.000000 640.000000"
 preserveAspectRatio="xMidYMid meet">

<g transform="translate(0.000000,640.000000) scale(0.100000,-0.100000)"
fill="#fff" stroke="none">
<path d="M3010 5724 c-19 -2 -78 -9 -130 -14 -710 -77 -1373 -492 -1799 -1125
-233 -348 -361 -712 -402 -1149 -15 -159 -7 -490 16 -636 99 -644 416 -1180
955 -1615 253 -205 585 -370 902 -450 402 -102 862 -106 1276 -10 317 74 677
254 962 481 108 86 314 293 403 404 225 279 389 604 472 935 59 237 70 337 70
655 -1 248 -4 302 -23 414 -75 433 -219 766 -481 1111 -105 139 -370 402 -511
507 -352 263 -706 409 -1145 474 -96 14 -492 27 -565 18z m415 -1250 c49 -8
130 -28 180 -45 84 -28 258 -109 280 -130 6 -6 -34 -53 -109 -128 l-118 -119
-64 29 c-418 190 -928 46 -1187 -335 -90 -132 -152 -307 -163 -461 l-7 -80
242 3 c132 1 241 -1 241 -5 0 -12 -633 -643 -645 -643 -12 0 -645 631 -645
643 0 4 108 6 240 5 l240 -3 0 45 c0 71 27 227 55 325 95 327 345 624 659 782
248 125 514 164 801 117z m1235 -949 l325 -325 -245 0 -245 0 -3 -68 c-21
-501 -366 -968 -844 -1143 -132 -49 -240 -69 -393 -75 -228 -10 -434 35 -632
135 -130 66 -130 49 5 184 l118 118 58 -26 c32 -14 97 -38 145 -52 78 -24 101
-27 251 -27 197 0 268 16 427 94 311 153 508 444 537 793 l5 67 -239 0 c-132
0 -240 1 -240 3 0 4 634 643 640 645 3 1 151 -144 330 -323z"/>
</g>
</svg>
